# xmcd
#
# Track frame offsets: 
#        150
#        10287
#        19220
#        32138
#        40105
#        53208
#        61480
#        71611
#        79620
#        93889
#        101257
#
# Disc length: 1509 seconds
#
# Revision: 0
# Processed by: cddbd v1.5.2PL0 Copyright (c) Steve Scherf et al.
# Submitted via: ExactAudioCopy v1.3
#
DISCID=8205e30b
DTITLE=Johnny Horton - On The Road
DYEAR=1970
DGENRE=Country
TTITLE0=Old Blind Barnabas
TTITLE1=The Golden Rocket
TTITLE2=I Just Don't Like This Kind Of Livin'
TTITLE3=Broken Hearted Gypsy
TTITLE4=Hank And Joe And Me
TTITLE5=The Church By The Side Of The Road
TTITLE6=A-Sleeping At The Foot Of The Bed
TTITLE7=You Don't Move Me Baby Anymore
TTITLE8=Evil Hearted Me
TTITLE9=Hot In The Sugarcane Field
TTITLE10=The Gosh-Darn Wheel
EXTD=
EXTT0=
EXTT1=
EXTT2=
EXTT3=
EXTT4=
EXTT5=
EXTT6=
EXTT7=
EXTT8=
EXTT9=
EXTT10=
PLAYORDER=
